<?xml version="1.0" encoding="utf-8"?>
<!-- Generator: Adobe Illustrator 19.0.1, SVG Export Plug-In . SVG Version: 6.00 Build 0)  -->
<svg version="1.1" id="Layer_1" xmlns="http://www.w3.org/2000/svg" xmlns:xlink="http://www.w3.org/1999/xlink" x="0px" y="0px"
	 viewBox="0 0 98.1 30" style="enable-background:new 0 0 98.1 30;" xml:space="preserve">
<style type="text/css">
	.st0{fill:#E6E6E6;}
</style>
<g>
	<g>
		<path class="st0" d="M7,24.8c-0.1,0-0.3-0.1-0.5-0.2l-5.7-5.5c-0.3-0.3-0.5-0.5-0.6-0.6C0.1,18.4,0.1,18.2,0,18
			c-0.1-0.2,0-0.4,0-0.7v-0.8c0-0.2-0.1-0.5,0-0.7c0.1-0.2,0.1-0.4,0.2-0.5c0.1-0.1,0.3-0.3,0.6-0.6l5.7-5.7C6.6,9,6.8,9,7,9
			c0.2,0,0.6,0.1,0.7,0.2c0.1,0.1,0.4,0.3,0.4,0.5v0.9c0,0.1-0.2,0.2-0.2,0.3c0,0.1-0.1,0.2-0.1,0.2c0,0.1-0.1,0.1-0.2,0.2
			c-0.1,0.1-0.1,0.1-0.1,0.2c0,0-0.1,0.1-0.2,0.2c-0.1,0.1-0.1,0.1-0.2,0.1c0,0-0.1,0.1-0.2,0.2c-0.1,0.1-0.2,0.2-0.2,0.2l-4.4,4.5
			c-0.1,0.1-0.2,0.2-0.2,0.3c0,0.1,0.1,0.2,0.2,0.3l4.4,4.4c0,0,0.1,0.1,0.2,0.2C7,21.9,7,21.9,7.1,22c0,0,0.1,0.1,0.2,0.2
			c0.1,0.1,0.1,0.1,0.1,0.2c0,0,0.1,0.1,0.1,0.2c0,0.1,0.1,0.1,0.1,0.2c0,0.1,0.2,0.1,0.3,0.2c0,0.1,0.2,0.2,0.2,0.3v1
			c0,0.2-0.3,0.3-0.4,0.5C7.5,24.7,7.2,24.8,7,24.8z"/>
		<path class="st0" d="M12.5,30c-0.1,0-0.2,0.1-0.2-0.2c0,0,0,0.1,0,0.1c0,0,0,0,0,0l4.6-29.1C17,0.4,17.1,0,17.3,0H20
			c0.1,0,0.2,0.4,0.2,0.7c0,0.1,0,0.3,0,0.3l-4.6,28.7C15.5,30,15.4,30,15.2,30H12.5z"/>
		<path class="st0" d="M24.5,27c-0.2,0-0.3,0-0.4-0.1c-0.1-0.1-0.1-0.2-0.1-0.5V4.6c0-0.3,0-0.5,0.1-0.6C24.2,4,24.3,4,24.5,4h2.8
			c0.2,0,0.4,0,0.5,0.1c0.1,0.1,0.2,0.2,0.2,0.6v8.6c0,0.1-0.1-0.1,0-0.1c0,0.1,0-0.2,0-0.2h5.9c0,0,0.1,0.3,0.1,0.2
			c0.1-0.1,0,0.1,0,0V4.6c0-0.3,0.1-0.5,0.2-0.6C34.3,4,34.5,4,34.6,4h2.9c0.2,0,0.3,0,0.4,0.1c0.1,0.1,0.2,0.2,0.2,0.6v21.8
			c0,0.3-0.1,0.5-0.2,0.5C37.8,27,37.7,27,37.5,27h-2.9c-0.1,0-0.2,0.1-0.3,0c-0.1,0-0.1-0.1-0.2-0.2c-0.1-0.1-0.1-0.2-0.1-0.5v-9.9
			c0-0.2,0-0.5-0.2-0.5h-5.8c-0.1,0,0,0.3,0,0.5v9.9c0,0.3-0.1,0.4-0.2,0.5C27.8,27,27.5,27,27.4,27H24.5z"/>
		<path class="st0" d="M45.3,27c-0.2,0-0.2,0-0.3-0.1c-0.1-0.1,0-0.2,0-0.5V6.9c0-0.3-0.3-0.9-0.4-0.9h-3.4c-0.1,0-0.2,0.2-0.3,0.2
			c-0.1,0,0.1,0.1,0,0c0-0.1,0.1-0.1,0.1-0.3V4.6c0-0.3-0.1-0.4-0.1-0.5C41.1,4,41,4,41.2,4h11.1c0.2,0,0.4,0,0.5,0.1
			c0.1,0.1,0.3,0.2,0.3,0.5v1.3c0,0.3-0.2,0.2-0.3,0.3C52.7,6.2,52.5,6,52.3,6h-3.3c-0.1,0,0.1,0.6,0.1,0.9v19.5
			c0,0.3-0.2,0.5-0.3,0.6C48.7,27,48.4,27,48.2,27H45.3z"/>
		<path class="st0" d="M55.6,27c-0.3,0-0.5-0.1-0.5-0.6v-0.1L56,4.9C56,4.3,56.2,4,56.5,4h3.1c0.2,0,0.4,0,0.5,0.1
			c0.1,0.1,0.2,0.3,0.3,0.6L63.7,20c0,0,0,0.1,0.1,0.1c0,0,0.1,0,0.1,0c0,0,0-0.1,0-0.1l3.3-15.2C67.3,4.2,67.6,4,68,4h3.1
			c0.3,0,0.3,0.3,0.3,0.9l0.7,21.4v0.1c0,0.5,0.3,0.6-0.1,0.6h-2.2c-0.3,0-0.5-0.2-0.5-0.8L68.7,9.6c0-0.1,0-0.1-0.1-0.1
			c0,0-0.1,0-0.1,0.1L65,26.3c-0.1,0.5-0.3,0.7-0.7,0.7h-1.3c-0.3,0-0.5-0.2-0.7-0.7L59,9.6c0-0.1,0-0.1-0.1,0c0,0,0,0.1,0,0.1
			l-0.6,16.5c0,0.6-0.2,0.8-0.5,0.8H55.6z"/>
		<path class="st0" d="M77.1,27c-0.2,0-0.1,0-0.2-0.1c-0.1-0.1,0.1-0.2,0.1-0.5V4.6c0-0.3-0.2-0.5-0.1-0.6C77.1,4,77,4,77.1,4H80
			c0.2,0,0.1,0,0.2,0.1c0.1,0.1-0.1,0.2-0.1,0.6v19.6c0,0.2,0.5-0.2,0.7-0.2h5.1c0.2,0,0.1,0.3,0.2,0.4c0.1,0.1,0,0.5,0,0.8v1.3
			c0,0.3,0.1,0.4,0,0.4C86,27,86,27,85.9,27H77.1z"/>
		<path class="st0" d="M90.8,24.8c-0.2,0-0.4-0.1-0.5-0.2c-0.1-0.1-0.2-0.3-0.2-0.5v-0.9c0-0.1,0-0.1,0.1-0.2c0-0.1,0-0.1,0.1-0.2
			c0-0.1,0-0.1,0.1-0.2c0-0.1,0.1-0.1,0.1-0.1c0,0,0.1-0.1,0.1-0.1c0-0.1,0.1-0.1,0.1-0.1c0,0,0.1-0.1,0.1-0.1
			c0.1-0.1,0.1-0.1,0.1-0.1c0,0,0.1-0.1,0.2-0.1c0.1-0.1,0.1-0.1,0.2-0.2l4.4-4.5c0.1-0.1,0.2-0.2,0.2-0.3c0-0.1-0.1-0.2-0.2-0.3
			l-4.4-4.4c0,0-0.1-0.1-0.2-0.2c-0.1-0.1-0.2-0.2-0.2-0.2c0,0-0.1-0.1-0.2-0.2c-0.1-0.1-0.1-0.1-0.1-0.2c0,0,0-0.1-0.1-0.2
			c0-0.1-0.1-0.2-0.1-0.3c0-0.1-0.1-0.2-0.1-0.3v-1c0-0.2,0.1-0.4,0.2-0.5C90.4,9.1,90.6,9,90.8,9c0.1,0,0.3,0.1,0.5,0.2l5.7,5.5
			c0.3,0.3,0.5,0.5,0.6,0.6c0.1,0.1,0.2,0.3,0.3,0.5c0.1,0.2,0.2,0.4,0.2,0.7v0.8c0,0.1,0,0.2,0,0.2c0,0.1,0,0.1-0.1,0.2
			c0,0.1-0.1,0.1-0.1,0.2c0,0-0.1,0.1-0.1,0.2c-0.1,0.1-0.1,0.1-0.1,0.2c0,0-0.1,0.1-0.2,0.2c-0.1,0.1-0.1,0.1-0.2,0.2
			c0,0-0.1,0.1-0.2,0.2C97.1,18.9,97,18.9,97,19l-5.7,5.7C91.1,24.7,90.9,24.8,90.8,24.8z"/>
	</g>
</g>
</svg>
